<svg viewBox="0 0 32 32" fill="none" xmlns="http://www.w3.org/2000/svg">
  <defs>
    <linearGradient id="favicon-grad" x1="0" y1="0" x2="0" y2="32" gradientUnits="userSpaceOnUse">
      <stop offset="0%" stopColor="#3b82f6"/>
      <stop offset="100%" stopColor="#7c3aed"/>
    </linearGradient>
  </defs>
  
  <!-- Centered 7x8 pixel art character (2px offset left, 0px offset top) -->
  <!-- Row 0: top accent pixels -->
  <rect x="10" y="0" width="4" height="4" fill="url(#favicon-grad)"/>
  <rect x="14" y="0" width="4" height="4" fill="url(#favicon-grad)"/>
  <!-- Row 1: upper head -->
  <rect x="6" y="4" width="20" height="4" fill="url(#favicon-grad)"/>
  <!-- Row 2: full width -->
  <rect x="2" y="8" width="28" height="4" fill="url(#favicon-grad)"/>
  <!-- Row 3: eyes row — white squares = eyes -->
  <rect x="2" y="12" width="4" height="4" fill="url(#favicon-grad)"/>
  <rect x="6" y="12" width="4" height="4" fill="#ffffff"/>
  <rect x="10" y="12" width="8" height="4" fill="url(#favicon-grad)"/>
  <rect x="18" y="12" width="4" height="4" fill="url(#favicon-grad)"/>
  <rect x="22" y="12" width="4" height="4" fill="#ffffff"/>
  <rect x="26" y="12" width="4" height="4" fill="url(#favicon-grad)"/>
  <!-- Row 4: full -->
  <rect x="2" y="16" width="28" height="4" fill="url(#favicon-grad)"/>
  <!-- Row 5: lower body split -->
  <rect x="6" y="20" width="8" height="4" fill="url(#favicon-grad)"/>
  <rect x="18" y="20" width="8" height="4" fill="url(#favicon-grad)"/>
  <!-- Row 6: legs -->
  <rect x="10" y="24" width="4" height="4" fill="url(#favicon-grad)"/>
  <rect x="18" y="24" width="4" height="4" fill="url(#favicon-grad)"/>
  <!-- Row 7: right foot -->
  <rect x="18" y="28" width="4" height="4" fill="url(#favicon-grad)"/>
</svg>
