<svg viewBox="0 0 40 40" fill="none" xmlns="http://www.w3.org/2000/svg">
  <!-- Rounded dark background for contrast and high visibility on all browser theme tabs -->
  <rect width="40" height="40" rx="10" fill="#06080e"/>
  
  <g transform="translate(6, 4)">
    <defs>
      <linearGradient id="favicon-grad" x1="0" y1="0" x2="0" y2="32" gradientUnits="userSpaceOnUse">
        <stop offset="0%" stopColor="#3b82f6"/>
        <stop offset="100%" stopColor="#7c3aed"/>
      </linearGradient>
    </defs>
    <!-- Row 0: top accent pixels -->
    <rect x="8" y="0" width="4" height="4" fill="url(#favicon-grad)"/>
    <rect x="12" y="0" width="4" height="4" fill="url(#favicon-grad)"/>
    <!-- Row 1: upper head -->
    <rect x="4" y="4" width="20" height="4" fill="url(#favicon-grad)"/>
    <!-- Row 2: full width -->
    <rect x="0" y="8" width="28" height="4" fill="url(#favicon-grad)"/>
    <!-- Row 3: eyes row — white squares = eyes -->
    <rect x="0" y="12" width="4" height="4" fill="url(#favicon-grad)"/>
    <rect x="4" y="12" width="4" height="4" fill="#ffffff"/>
    <rect x="8" y="12" width="8" height="4" fill="url(#favicon-grad)"/>
    <rect x="16" y="12" width="4" height="4" fill="url(#favicon-grad)"/>
    <rect x="20" y="12" width="4" height="4" fill="#ffffff"/>
    <rect x="24" y="12" width="4" height="4" fill="url(#favicon-grad)"/>
    <!-- Row 4: full -->
    <rect x="0" y="16" width="28" height="4" fill="url(#favicon-grad)"/>
    <!-- Row 5: lower body split -->
    <rect x="4" y="20" width="8" height="4" fill="url(#favicon-grad)"/>
    <rect x="16" y="20" width="8" height="4" fill="url(#favicon-grad)"/>
    <!-- Row 6: legs -->
    <rect x="8" y="24" width="4" height="4" fill="url(#favicon-grad)"/>
    <rect x="16" y="24" width="4" height="4" fill="url(#favicon-grad)"/>
    <!-- Row 7: right foot -->
    <rect x="16" y="28" width="4" height="4" fill="url(#favicon-grad)"/>
  </g>
</svg>
